<?xml version="1.0" encoding="utf-8"?>
<!-- Generator: Adobe Illustrator 23.0.1, SVG Export Plug-In . SVG Version: 6.00 Build 0)  -->
<svg version="1.1" id="Isolation_Mode" xmlns="http://www.w3.org/2000/svg" xmlns:xlink="http://www.w3.org/1999/xlink" x="0px"
	 y="0px" viewBox="0 0 197.4 23.9" style="enable-background:new 0 0 197.4 23.9;" xml:space="preserve">
<style type="text/css">
	.st0{fill:#E55725;}
	.st1{fill:#5A5A5A;}
</style>
<title>logo</title>
<path class="st0" d="M8.1,13.1c0.2-0.3,0.3-0.4,0.3-0.4l-0.9-0.5c-0.1,0.2-0.2,0.4-0.4,0.6C7.5,12.8,7.8,13,8.1,13.1z M22.8,6.9
	l-0.4,0.3c-0.6,0.5-1.7,1.3-2.9,2.2l0,0l0,0c-2.2,1.7-4.8,3.6-4.8,3.6c0.6,0.4,2.4,1.5,3,2l0.6-0.6c0.2-0.2,0.4-0.4,0.6-0.3
	c0.4,0.1,0.6,0.4,0.8,0.7l0.1,0.4l0.8-0.2h0.1h0.2c0.1,0,0.1,0,0.2,0c0.1,0,0.2,0,0.2,0.1c0.1,0,0.2,0.1,0.2,0.1
	c0.1,0,0.1,0.1,0.1,0.2c0,0,0,0.1,0,0.1c0,0.1,0,0.1-0.1,0.1l-1.3,0.9h-0.1l0,0c0,0.1,0.1,0.1,0,0.2c-0.1,0-0.2,0-0.3,0
	c-0.1,0-0.1,0.1-0.2,0.1l-0.9,0.5c0,0-0.1,0-0.1,0h-0.2h-0.2L18,17.4l-0.2-0.1l-0.1-0.1l0,0l0.2-0.8l-0.3-0.1l0,0L12,14.7
	c0,0-4.2,1.6-4.4,1.7c-0.2,0.1-0.4,0.1-0.6,0c-0.3-0.1-0.5-0.3-0.3-0.8c0.2-0.4,0.4-0.9,0.6-1.3c-0.3-0.3-0.6-0.5-0.8-0.8
	c-0.2,0.3-0.5,0.6-0.8,0.8c0.1-0.5,0.4-0.9,0.7-1.3c-0.1-0.1-0.1-0.2-0.1-0.2c0.1-0.1,0.2-0.1,0.3,0c0.2-0.3,0.4-0.5,0.7-0.8
	C5,10.4,4.6,9.5,4.8,9.2c0.2-0.3,1.3,0,1.3,0c0-0.1,0.1-0.1,0.2-0.1c1,0.1,1.9,0.4,2.7,0.9c0.3-0.4,0.5-0.7,0.8-1.1
	C9.8,8.8,9.8,8.7,9.8,8.5c0.1-0.1,0.3-0.1,0.4,0c0.4-0.6,0.9-1,1.4-1.3c-0.1,0.5-0.3,0.9-0.7,1.3c0.8,0.3,1.5,0.7,2.2,1.1l6.2-2.9
	c0.2-0.1,0.9-0.5,1.7-0.8l1-0.5c-3.6-5.5-11-6.9-16.5-3.3s-6.9,11-3.3,16.5s11,6.9,16.5,3.3C23.6,18.6,25.3,12.2,22.8,6.9z
	 M9.4,10.2c0.6,0.3,1.1,0.6,1.1,0.6l0.5-0.2c-0.3-0.3-0.7-0.7-0.9-1.1C9.8,9.9,9.6,10.1,9.4,10.2z"/>
<path class="st1" d="M37.4,6.9l-0.2,1.7h-3.3v2.3h2.6v1.7h-2.6v4.5h-2.1V6.9H37.4z"/>
<path class="st1" d="M42.1,6.9v6.7c0,0.4,0,0.8,0.2,1.2c0.3,0.5,0.8,0.8,1.4,0.7c0.8,0.1,1.5-0.4,1.6-1.2c0,0,0,0,0,0
	c0-0.3,0-0.6,0-0.9V6.9h2.1v6.9c0.1,0.5,0,1.1-0.2,1.6c-0.3,0.8-1.3,1.9-3.5,1.9c-1.3,0.1-2.5-0.4-3.3-1.4c-0.4-0.6-0.5-1.3-0.4-1.9
	V6.9H42.1L42.1,6.9z"/>
<path class="st1" d="M52.9,6.9v8.5h3.7l-0.4,1.7h-5.4V6.9H52.9L52.9,6.9z"/>
<path class="st1" d="M61.4,6.9v8.5H65l-0.4,1.7h-5.4V6.9C59.3,6.9,61.4,6.9,61.4,6.9z"/>
<path class="st1" d="M78.3,9.1c-0.7-0.5-1.5-0.8-2.4-0.8c-0.7-0.1-1.3,0.4-1.4,1.1c0,0,0,0.1,0,0.1c0,0.5,0.3,0.8,1.1,1l1.2,0.4
	c1.5,0.2,2.6,1.5,2.6,3c0,2.1-1.7,3.4-4.2,3.4c-1.2,0-2.4-0.3-3.5-0.9l0.8-1.6c0.9,0.5,1.8,0.8,2.8,0.8c1.2,0,1.8-0.5,1.8-1.4
	c0-0.7-0.6-1.2-1.2-1.3l-1.1-0.3c-0.8-0.1-1.5-0.6-2-1.3c-0.3-0.5-0.4-1-0.4-1.6c0-1.9,1.5-3.2,3.7-3.2c1.2,0,2.4,0.3,3.4,1
	L78.3,9.1z"/>
<path class="st1" d="M86.2,6.9l3.2,10.3h-2.2l-0.7-2.4h-3l-0.7,2.4h-2.1L84,6.9H86.2z M86,13c0,0-0.3-1.1-0.5-2.1
	c-0.1-0.5-0.4-1.8-0.4-1.8l-0.5,2c-0.2,0.7-0.3,1.2-0.5,1.9L86,13L86,13z"/>
<path class="st1" d="M93.8,6.9v10.2h-2.2V6.9H93.8z"/>
<path class="st1" d="M99.4,6.9v8.5h3.7l-0.4,1.7h-5.4V6.9H99.4L99.4,6.9z"/>
<path class="st1" d="M111.8,6.9v6.7c0,0.4,0,0.8,0.2,1.2c0.3,0.5,0.8,0.8,1.4,0.7c0.8,0.1,1.5-0.4,1.6-1.2c0,0,0,0,0,0
	c0-0.3,0-0.6,0-0.9V6.9h2.1v6.9c0.1,0.5,0,1.1-0.2,1.6c-0.3,0.8-1.3,1.9-3.5,1.9c-1.3,0.1-2.5-0.4-3.3-1.4c-0.4-0.6-0.5-1.3-0.4-1.9
	V6.9H111.8z"/>
<path class="st1" d="M122.8,6.9l2,4.1c0.4,0.9,0.8,1.9,1.1,2.9c-0.1-0.8-0.1-2.1-0.2-2.8V6.9h2v10.2h-2.2l-1.7-3.9
	c-0.6-1.3-1.2-2.7-1.4-3.4c0.1,0.8,0.1,2,0.1,2.9l0.1,4.4h-2V6.9H122.8z"/>
<path class="st1" d="M133.3,6.9v10.2h-2.1V6.9H133.3z"/>
<path class="st1" d="M138,6.9l1.7,5.3c0.1,0.5,0.3,1,0.5,1.8c0.2-0.7,0.4-1.3,0.6-2l1.7-5.1h2.2l-3.6,10.3h-1.9l-3.4-10.3H138
	L138,6.9z"/>
<path class="st1" d="M153,6.9l-0.2,1.7h-3.5v2.4h2.9v1.7h-2.9v2.7h3.9v1.8h-6V6.9H153L153,6.9z"/>
<path class="st1" d="M159.9,6.9c1.6-0.1,2.9,1.1,3,2.7c0,0.1,0,0.2,0,0.3c0.1,1.4-0.9,2.6-2.3,2.8c0.2,0.1,0.3,0.3,0.4,0.4
	c0.6,0.7,2.5,4,2.5,4h-2.4c-0.4-0.7-0.6-1-1-1.7c-1-1.8-1.3-2.3-1.7-2.5c-0.1,0-0.2-0.1-0.3-0.1v4.3h-2V6.9H159.9L159.9,6.9z
	 M158.1,11.3h0.7c0.5,0.1,1.1,0,1.5-0.3c0.3-0.3,0.4-0.6,0.4-1c0.1-0.5-0.2-1-0.7-1.2c-0.4-0.1-0.8-0.2-1.2-0.1h-0.7L158.1,11.3
	L158.1,11.3z"/>
<path class="st1" d="M171.8,9.1c-0.7-0.5-1.5-0.8-2.4-0.8c-0.7-0.1-1.3,0.4-1.4,1.1c0,0,0,0.1,0,0.1c0,0.5,0.3,0.8,1.1,1l1.2,0.4
	c1.5,0.2,2.6,1.5,2.6,3c0,2.1-1.7,3.4-4.2,3.4c-1.2,0-2.4-0.3-3.5-0.9l0.8-1.6c0.9,0.5,1.8,0.8,2.8,0.8c1.2,0,1.8-0.5,1.8-1.4
	c0-0.7-0.6-1.3-1.3-1.3l-1.1-0.3c-0.8-0.1-1.5-0.6-2-1.3c-0.3-0.5-0.4-1-0.4-1.6c0-1.9,1.5-3.2,3.7-3.2c1.2,0,2.4,0.3,3.4,1
	L171.8,9.1z"/>
<path class="st1" d="M177.7,6.9v10.2h-2.1V6.9H177.7z"/>
<path class="st1" d="M187.6,6.9l-0.3,1.7h-2.4v8.5h-2.1V8.6h-2.5V6.9H187.6L187.6,6.9z"/>
<path class="st1" d="M191.3,6.9l1.3,2.8c0.2,0.4,0.4,0.9,0.5,1.3c0.1-0.3,0.3-0.8,0.6-1.3l1.3-2.8h2.4l-3.3,6v4.2H192v-4.2l-3.2-6
	H191.3L191.3,6.9z"/>
</svg>
