{
  "accessors": [
    {
      "bufferView": 2,
      "componentType": 5126,
      "count": 920,
      "max": [
        58.54951095581055,
        57.99354934692383,
        11.828584671020508
      ],
      "min": [
        -58.54951095581055,
        -59.1054801940918,
        7.7757978439331055
      ],
      "type": "VEC3"
    },
    {
      "bufferView": 2,
      "byteOffset": 11040,
      "componentType": 5126,
      "count": 920,
      "max": [
        1.0,
        1.0,
        0.9998961091041565
      ],
      "min": [
        -1.0,
        -1.0,
        -0.9998961091041565
      ],
      "type": "VEC3"
    },
    {
      "bufferView": 1,
      "componentType": 5126,
      "count": 920,
      "max": [
        0.0,
        0.0
      ],
      "min": [
        0.0,
        0.0
      ],
      "type": "VEC2"
    },
    {
      "bufferView": 0,
      "componentType": 5125,
      "count": 2820,
      "type": "SCALAR"
    },
    {
      "bufferView": 2,
      "byteOffset": 22080,
      "componentType": 5126,
      "count": 288,
      "max": [
        29.230144500732422,
        28.674179077148438,
        10.354938507080078
      ],
      "min": [
        -29.230144500732422,
        -29.786113739013672,
        -13.987502098083496
      ],
      "type": "VEC3"
    },
    {
      "bufferView": 2,
      "byteOffset": 25536,
      "componentType": 5126,
      "count": 288,
      "max": [
        1.0,
        1.0,
        0.9926530122756958
      ],
      "min": [
        -1.0,
        -1.0,
        -0.9926530122756958
      ],
      "type": "VEC3"
    },
    {
      "bufferView": 1,
      "byteOffset": 7360,
      "componentType": 5126,
      "count": 288,
      "max": [
        0.0,
        0.0
      ],
      "min": [
        0.0,
        0.0
      ],
      "type": "VEC2"
    },
    {
      "bufferView": 0,
      "byteOffset": 11280,
      "componentType": 5125,
      "count": 864,
      "type": "SCALAR"
    },
    {
      "bufferView": 2,
      "byteOffset": 28992,
      "componentType": 5126,
      "count": 920,
      "max": [
        58.54951095581055,
        57.99354934692383,
        -11.006529808044434
      ],
      "min": [
        -58.54951095581055,
        -59.1054801940918,
        -15.059316635131836
      ],
      "type": "VEC3"
    },
    {
      "bufferView": 2,
      "byteOffset": 40032,
      "componentType": 5126,
      "count": 920,
      "max": [
        1.0,
        1.0,
        0.9998961091041565
      ],
      "min": [
        -1.0,
        -1.0,
        -0.9998961091041565
      ],
      "type": "VEC3"
    },
    {
      "bufferView": 1,
      "byteOffset": 9664,
      "componentType": 5126,
      "count": 920,
      "max": [
        0.0,
        0.0
      ],
      "min": [
        0.0,
        0.0
      ],
      "type": "VEC2"
    },
    {
      "bufferView": 0,
      "byteOffset": 14736,
      "componentType": 5125,
      "count": 2820,
      "type": "SCALAR"
    },
    {
      "bufferView": 2,
      "byteOffset": 51072,
      "componentType": 5126,
      "count": 1136,
      "max": [
        68.2641830444336,
        29.299705505371094,
        6.492986679077148
      ],
      "min": [
        -29.855674743652344,
        -45.75181198120117,
        -10.12555980682373
      ],
      "type": "VEC3"
    },
    {
      "bufferView": 2,
      "byteOffset": 64704,
      "componentType": 5126,
      "count": 1136,
      "max": [
        1.0,
        1.0,
        1.0
      ],
      "min": [
        -1.0,
        -1.0,
        -1.0
      ],
      "type": "VEC3"
    },
    {
      "bufferView": 1,
      "byteOffset": 17024,
      "componentType": 5126,
      "count": 1136,
      "max": [
        0.0,
        0.0
      ],
      "min": [
        0.0,
        0.0
      ],
      "type": "VEC2"
    },
    {
      "bufferView": 0,
      "byteOffset": 26016,
      "componentType": 5125,
      "count": 3594,
      "type": "SCALAR"
    },
    {
      "bufferView": 2,
      "byteOffset": 78336,
      "componentType": 5126,
      "count": 280,
      "max": [
        67.48512268066406,
        29.299705505371094,
        4.73970890045166
      ],
      "min": [
        -29.855674743652344,
        -45.75181198120117,
        -8.372282981872559
      ],
      "type": "VEC3"
    },
    {
      "bufferView": 2,
      "byteOffset": 81696,
      "componentType": 5126,
      "count": 280,
      "max": [
        0.9935001730918884,
        1.0,
        9.729883458931e-07
      ],
      "min": [
        -1.0,
        -1.0,
        -1.3197203543313663e-06
      ],
      "type": "VEC3"
    },
    {
      "bufferView": 1,
      "byteOffset": 26112,
      "componentType": 5126,
      "count": 280,
      "max": [
        0.0,
        0.0
      ],
      "min": [
        0.0,
        0.0
      ],
      "type": "VEC2"
    },
    {
      "bufferView": 0,
      "byteOffset": 40392,
      "componentType": 5125,
      "count": 612,
      "type": "SCALAR"
    }
  ],
  "asset": {
    "extras": {
      "author": "sedayuzlu (https://sketchfab.com/sedayuzlu)",
      "license": "CC-BY-4.0 (http://creativecommons.org/licenses/by/4.0/)",
      "source": "https://sketchfab.com/3d-models/film-reel-c099527235af42b4a30898e7ca66c565",
      "title": "Film Reel"
    },
    "generator": "Sketchfab-15.37.0",
    "version": "2.0"
  },
  "bufferViews": [
    {
      "buffer": 0,
      "byteLength": 42840,
      "name": "floatBufferViews",
      "target": 34963
    },
    {
      "buffer": 0,
      "byteLength": 28352,
      "byteOffset": 42840,
      "byteStride": 8,
      "name": "floatBufferViews",
      "target": 34962
    },
    {
      "buffer": 0,
      "byteLength": 85056,
      "byteOffset": 71192,
      "byteStride": 12,
      "name": "floatBufferViews",
      "target": 34962
    }
  ],
  "buffers": [
    {
      "byteLength": 156248,
      "uri": "scene.bin"
    }
  ],
  "materials": [
    {
      "doubleSided": true,
      "name": "Material.004",
      "pbrMetallicRoughness": {
        "baseColorFactor": [
          0.8,
          0.8,
          0.8,
          1.0
        ],
        "metallicFactor": 0.0,
        "roughnessFactor": 0.8211145618000169
      }
    },
    {
      "doubleSided": true,
      "name": "Material.005",
      "pbrMetallicRoughness": {
        "baseColorFactor": [
          0.0,
          0.0,
          0.0,
          1.0
        ],
        "metallicFactor": 0.0
      }
    },
    {
      "doubleSided": true,
      "name": "Material.006",
      "pbrMetallicRoughness": {
        "baseColorFactor": [
          0.00719349,
          0.00719349,
          0.00719349,
          1.0
        ],
        "metallicFactor": 0.0,
        "roughnessFactor": 0.9983914867364535
      }
    },
    {
      "doubleSided": true,
      "name": "Material.007",
      "pbrMetallicRoughness": {
        "baseColorFactor": [
          0.8,
          0.8,
          0.8,
          1.0
        ],
        "metallicFactor": 0.0,
        "roughnessFactor": 0.8211145618000169
      }
    }
  ],
  "meshes": [
    {
      "name": "Circle_Material.004_0",
      "primitives": [
        {
          "attributes": {
            "NORMAL": 1,
            "POSITION": 0,
            "TEXCOORD_0": 2
          },
          "indices": 3,
          "material": 0,
          "mode": 4
        }
      ]
    },
    {
      "name": "Circle.003_Material.005_0",
      "primitives": [
        {
          "attributes": {
            "NORMAL": 5,
            "POSITION": 4,
            "TEXCOORD_0": 6
          },
          "indices": 7,
          "material": 1,
          "mode": 4
        }
      ]
    },
    {
      "name": "Circle.002_Material.004_0",
      "primitives": [
        {
          "attributes": {
            "NORMAL": 9,
            "POSITION": 8,
            "TEXCOORD_0": 10
          },
          "indices": 11,
          "material": 0,
          "mode": 4
        }
      ]
    },
    {
      "name": "Circle.001_Material.006_0",
      "primitives": [
        {
          "attributes": {
            "NORMAL": 13,
            "POSITION": 12,
            "TEXCOORD_0": 14
          },
          "indices": 15,
          "material": 2,
          "mode": 4
        }
      ]
    },
    {
      "name": "Circle.001_Material.007_0",
      "primitives": [
        {
          "attributes": {
            "NORMAL": 17,
            "POSITION": 16,
            "TEXCOORD_0": 18
          },
          "indices": 19,
          "material": 3,
          "mode": 4
        }
      ]
    }
  ],
  "nodes": [
    {
      "children": [
        1
      ],
      "matrix": [
        1.0,
        0.0,
        0.0,
        0.0,
        0.0,
        2.220446049250313e-16,
        -1.0,
        0.0,
        0.0,
        1.0,
        2.220446049250313e-16,
        0.0,
        0.0,
        0.0,
        0.0,
        1.0
      ],
      "name": "Sketchfab_model"
    },
    {
      "children": [
        2
      ],
      "matrix": [
        0.009999999776482582,
        0.0,
        0.0,
        0.0,
        0.0,
        0.0,
        0.009999999776482582,
        0.0,
        0.0,
        -0.009999999776482582,
        0.0,
        0.0,
        0.0,
        0.0,
        0.0,
        1.0
      ],
      "name": "1947c8f53ab8461cade2b79af96b317e.fbx"
    },
    {
      "children": [
        3,
        5,
        7,
        9
      ],
      "name": "RootNode"
    },
    {
      "children": [
        4
      ],
      "name": "Circle"
    },
    {
      "mesh": 0,
      "name": "Circle_Material.004_0"
    },
    {
      "children": [
        6
      ],
      "name": "Circle.003"
    },
    {
      "mesh": 1,
      "name": "Circle.003_Material.005_0"
    },
    {
      "children": [
        8
      ],
      "name": "Circle.002"
    },
    {
      "mesh": 2,
      "name": "Circle.002_Material.004_0"
    },
    {
      "children": [
        10,
        11
      ],
      "name": "Circle.001"
    },
    {
      "mesh": 3,
      "name": "Circle.001_Material.006_0"
    },
    {
      "mesh": 4,
      "name": "Circle.001_Material.007_0"
    }
  ],
  "scene": 0,
  "scenes": [
    {
      "name": "Sketchfab_Scene",
      "nodes": [
        0
      ]
    }
  ]
}
